<?xml version="1.0" encoding="UTF-8"?>
<svg viewBox="0 0 438.32 472.21" xmlns="http://www.w3.org/2000/svg">
<defs>
<style>.cls-1{fill:#fe0036;}.cls-2{fill:#221c35;}</style>
</defs>
<g data-name="Capa 2">
<g data-name="Capa 1">
<g data-name="#221c35ff">
<path class="cls-1" d="M50.73.08C75.54,0,100.35.15,125.16,0q0,79.43,0,158.86c.57,17.76,6.72,35.69,18.57,49.11,16.72,20.1,42.67,30.81,68.37,32.6q0,37.14,0,74.29c.42,26.54-8.09,53.57-25.46,73.87-12.47,14.7-30.46,24.77-49.7,26.9-6.48-3.51-13-7.06-19-11.2,16.15.2,31.28-7.93,43.07-18.46,10.4-9.81,19-21.87,23.58-35.48a117.31,117.31,0,0,0,6.93-38.71c0-19.48,0-39,0-58.42-11-2.43-22.09-5.07-32.25-10.07-21.84-9.54-40.84-26.76-50-49-.63-2.56-3.22-3.45-5.25-4.64C86.73,180.16,72.89,165,64,147.54A134.19,134.19,0,0,1,50.72,89.82q0-44.88,0-89.74M72.58,10.25c-.07,33.19-.27,66.38-.31,99.57.23,14.54,2.74,29.29,9.27,42.39,5.11,11,13.81,19.82,23,27.56a114.63,114.63,0,0,1-1.94-20q.06-74.77,0-149.57C92.59,10.26,82.59,10.2,72.58,10.25Z"/>
<path class="cls-1" d="m313.13 0.05c24.76 0 49.52 0.08 74.29 0 0.05 30.29 0 60.57 0 90.85a129.62 129.62 0 0 1-8.84 46.69 100.77 100.77 0 0 1-27.2 39.89c-6.33 5.93-13.84 10.31-21.22 14.72-3.45 7.28-7 14.58-12.07 21-10.29 13.65-24.65 23.91-40.25 30.7-9.85 4.78-20.6 7.12-31.19 9.64q0.06 27.23 0 54.45a119.35 119.35 0 0 0 10.68 51.51c7.67 15.02 19.28 28.5 34.17 36.79 8.78 5 18.69 8.4 28.88 8.17q-8.52 5.58-17.55 10.34c-2.2 1.34-4.81 0.36-7.14 0a77.32 77.32 0 0 1-39.57-21.23c-15.69-15.75-25.29-37-28.61-58.82-2-12.2-1-24.61-1.28-36.91v-57.31c20.28-1.38 40.38-8.31 56.42-20.95 10.58-8.71 19.75-19.58 24.6-32.58a82.32 82.32 0 0 0 5.92-30.21q-0.07-78.38 0-156.75m22.46 10.2q0 73.77 0 147.56a95 95 0 0 1-2 22.06c8.36-7.1 16.42-15 21.64-24.72 8.4-15.3 11-33 10.85-50.28-0.2-31.56-0.48-63.11-0.49-94.67-10.03 0.07-20.03 0.01-30.04 0.06z"/>
<path class="cls-1" d="m140.23 48.69a221 221 0 0 1 158 0.08q0 6.88 0 13.77c-49.68-21.59-108.35-21.76-158 0-0.06-4.65-0.03-9.25 0-13.85z"/>
<path class="cls-1" d="M19.55,162.44a230.71,230.71,0,0,1,23.21-39.19,129.26,129.26,0,0,0,5.52,18.33A200.9,200.9,0,0,0,165.85,440.64,201.11,201.11,0,0,0,418.37,273c5.26-41.16-2.29-84-22.13-120.53-1.77-3.87-4.69-7.27-6-11.27,1.84-6,4-11.87,5.38-18a236.82,236.82,0,0,1,26.08,46,219.24,219.24,0,0,1-25.41,213.07c-21.66,29.47-50.58,53.74-83.82,69.13-39.72,19-85.29,25.06-128.69,18A219.26,219.26,0,0,1,13.07,327.62C-6.52,274.52-3.87,213.89,19.55,162.44Z"/>
</g>
<g data-name="#fffcfdff">
<path class="cls-2" d="M174.87,77.17c4.8-1.14,11.69-.68,13.65,4.74,1.66,5.94.51,12.22.84,18.3l-6.79,0c-.15-5,.3-10-.19-15-.73-3.36-6.73-3-6.89.53-.32,12.35,0,24.73-.13,37.1.08,3.53-.55,7.27,1.16,10.54,2.12.09,5.15.77,5.84-2,.55-5.32,0-10.7.2-16h6.81c-.13,5.49.24,11-.17,16.47-.23,3.23-2.29,6.53-5.52,7.42a23.33,23.33,0,0,1-10.05-.15c-4.11-1.52-5.21-6.34-5.15-10.25,0-14,0-28,0-42C168.41,82.78,170.34,77.83,174.87,77.17Z"/>
<path class="cls-2" d="M203.46,76.84a15.73,15.73,0,0,1,8.47,1c3.29,1.58,4.5,5.5,4.47,8.92q0,21.54,0,43.09c.21,4.06-2,8.82-6.41,9.5-4.08.4-9.23,1.12-12.3-2.27-2.56-2.74-2.37-6.73-2.38-10.21.12-13.87-.12-27.75.12-41.62a8.42,8.42,0,0,1,8-8.41m.74,6.33c-2.3.8-2,3.69-2.07,5.64.14,14-.15,28,.14,41.93.24,3.86,7,3.91,7.14,0,.26-14,0-27.95.12-41.93-.08-1.83.24-4-1.32-5.38A6.14,6.14,0,0,0,204.2,83.17Z"/>
<path class="cls-2" d="M223.31,139.09q0-30.82,0-61.63c4.87.2,9.84-.47,14.64.6,3.11.63,5.11,3.74,5.25,6.78.39,6,0,12,.18,18,0,3.69.28,8.08-2.72,10.8-2.86,2.56-7,1.84-10.49,2-.23,7.81,0,15.62-.1,23.42-2.26,0-4.51,0-6.76,0M230.07,84q0,12.7,0,25.41c2.13-.34,5.53.72,6.33-2,.5-5.17,0-10.39.22-15.57-.13-2.38.38-4.93-.64-7.16C234.17,83.73,232,84.16,230.07,84Z"/>
<path class="cls-2" d="m252.29 77.44h12.21c1.89 20.53 3.52 41.08 5.16 61.63h-7.16c-0.25-4-0.56-8-1-12.06q-3.41 0-6.79 0.09c-0.23 4-0.52 8-0.76 12h-6.82c1.71-20.55 3.26-41.11 5.12-61.65m3 43.12h6c-1.5-12.84-1.69-25.8-3.31-38.62-0.51 12.86-1.69 25.73-2.63 38.61z"/>
<path class="cls-2" d="m202.39 146.69c3 0.45 7.47-0.91 9.29 2.3 1.44 2.09 0.13 4.88-1.94 6a41.65 41.65 0 0 1-7.41 0.37c0-2.88 0-5.76 0.06-8.63m2.1 6.75c2-0.17 5.63 0.26 5.56-2.73-0.64-2.42-3.68-1.66-5.51-2.15-0.03 1.59-0.05 3.21-0.05 4.84z"/>
<path class="cls-2" d="M216,147a42.88,42.88,0,0,1,8.4-.11l.94,1.73c-2.35.09-4.7.09-7.05.09l-.15,1.42h5.77c.14.35.44,1,.58,1.39a39.73,39.73,0,0,1-6.25.44l-.05,1.47,6.85-.07c0,.48,0,1.44,0,1.92q-4.53,0-9,0Z"/>
<path class="cls-2" d="m229.55 146.33c3.46 0.51 1.54 4.65 2 7h6.54v1.94h-8.71c0.01-2.96 0-5.95 0.17-8.94z"/>
<path class="cls-2" d="m188.69 163.16c4.27 0 8.6-0.39 12.83 0.36 4 1 4.3 5.9 4.1 9.26-0.5 5.13 1.62 11.56-3 15.34 1.43 7.18 2.88 14.35 4.4 21.51-2.39 0-4.76 0-7.14-0.06-1.32-7.94-2.76-15.86-4.24-23.77-0.86 7.93-0.1 15.92-0.34 23.88-2.2 0-4.4 0-6.59-0.08q0-23.22 0-46.44m6.61 5.65v15.62c1.37-0.27 3.06-0.11 3.93-1.47 0.34-4.51 0.06-9 0.11-13.56-1.36-0.22-2.72-0.4-4.06-0.59z"/>
<path class="cls-2" d="m212 163.1q6.69 0 13.38 0v6.08l-6.94-0.1v12.2c1.78 0 3.58-0.05 5.38-0.06-0.05 2-0.1 3.93-0.16 5.89l-5.21-0.14v16.68q3.6-0.08 7.23-0.12a64.52 64.52 0 0 1-0.18 6.52 48.7 48.7 0 0 0-13.21 0c-0.63-15.65-0.1-31.31-0.29-46.95z"/>
<path class="cls-2" d="m230.49 163.11h6.61c1.24 8.68 2.35 17.4 3.67 26.07 0.75-8.74 2-17.42 3.37-26.08h6.25c-2 10.48-3.8 21-5.76 31.48-1 5-0.54 10-0.6 15h-7c-0.05-4.64 0.38-9.33-0.55-13.91-2.04-10.79-3.88-21.67-5.99-32.56z"/>
</g>
</g>
</g>
</svg>
